<svg width="1154" height="1154" viewBox="0 0 1154 1154" fill="none" xmlns="http://www.w3.org/2000/svg">
<path d="M734.809 85.3329C743.582 96.2147 748.053 110.901 756.961 140.238L952.203 781.574C878.871 743.513 800.16 716.866 718.789 702.552L591.686 272.993C590.683 269.559 588.592 266.544 585.729 264.4C582.865 262.256 579.383 261.099 575.805 261.103C572.228 261.107 568.748 262.272 565.89 264.422C563.031 266.573 560.947 269.593 559.951 273.029L434.373 702.335C352.646 716.589 273.584 743.279 199.939 781.474L396.101 140.103C405.081 110.802 409.553 96.1426 418.316 85.2608C426.062 75.6822 436.126 68.2405 447.554 63.6413C460.473 58.4573 475.827 58.4573 506.471 58.4573H646.601C677.272 58.4573 692.625 58.4573 705.59 63.6774C717.025 68.2757 727.08 75.7321 734.809 85.3329Z" fill="url(#paint0_linear_60_1661)"/>
<path d="M758.16 812.073C725.974 839.616 661.729 858.387 587.738 858.387C496.95 858.387 420.813 830.105 400.627 792.068C393.415 813.868 391.792 838.805 391.792 854.762C391.792 854.762 387.041 932.973 441.45 987.382C441.45 980.667 442.773 974.018 445.343 967.814C447.913 961.611 451.68 955.974 456.428 951.226C461.177 946.479 466.814 942.713 473.018 940.144C479.222 937.575 485.872 936.253 492.587 936.255C541.001 936.255 540.974 978.475 540.938 1012.78V1015.81C540.938 1067.86 572.736 1112.45 617.958 1131.25C610.988 1116.94 607.375 1101.22 607.392 1085.29C607.392 1035.63 636.512 1017.18 670.393 995.695C697.341 978.619 727.272 959.632 747.873 921.568C758.992 901.058 764.803 878.092 764.777 854.762C764.79 840.276 762.558 825.876 758.16 812.073Z" fill="black"/>
<defs>
<linearGradient id="paint0_linear_60_1661" x1="796.077" y1="24.4441" x2="576.058" y2="781.566" gradientUnits="userSpaceOnUse">
<stop stop-color="#000014"/>
<stop offset="1"/>
</linearGradient>
</defs>
</svg>
