<svg width="402" height="462" viewBox="0 0 402 462" fill="none" xmlns="http://www.w3.org/2000/svg">
<path d="M198.373 392.347L62.2324 313.828C60.5802 312.837 59.4788 311.075 59.4788 309.092V187.735C59.4788 185.643 61.7918 184.321 63.5541 185.312L221.613 276.495C223.816 277.817 226.57 276.165 226.57 273.632V214.495C226.57 212.183 225.358 209.98 223.266 208.769L33.1539 99.0847C31.5017 98.0935 29.2988 98.0935 27.6466 99.0847L2.75365 113.511C1.10146 114.502 0 116.264 0 118.246V343.672C0 345.654 1.10146 347.416 2.75365 348.407L198.042 461.175C199.694 462.166 201.897 462.166 203.549 461.175L367.557 366.467C369.76 365.146 369.76 362.062 367.557 360.741L316.449 331.227C314.356 330.016 311.933 330.016 309.84 331.227L203.99 392.347C202.338 393.338 200.135 393.338 198.483 392.347H198.373Z" fill="black"/>
<path d="M398.838 113.401L203.55 0.743342C201.898 -0.247781 199.695 -0.247781 198.042 0.743342L94.8358 60.3208C92.6329 61.6423 92.6329 64.7258 94.8358 66.0473L145.503 95.3404C147.596 96.5518 150.019 96.5518 152.112 95.3404L198.373 68.6903C200.025 67.6991 202.228 67.6991 203.88 68.6903L340.02 147.209C341.673 148.2 342.774 149.962 342.774 151.945V273.853C342.774 276.165 343.986 278.368 346.078 279.579L396.746 308.762C398.948 310.084 401.702 308.432 401.702 305.899V118.246C401.702 116.264 400.601 114.502 398.948 113.511L398.838 113.401Z" fill="black"/>
</svg>
