<svg width="1083" height="1083" viewBox="0 0 1083 1083" fill="none" xmlns="http://www.w3.org/2000/svg">
<path d="M333.555 280.589C333.555 373.647 392.048 429.016 509.152 458.213L633.241 486.479C744.069 511.489 811.561 573.605 811.561 674.805C812.423 718.894 797.833 761.933 770.237 796.711C770.237 695.743 717.073 641.188 588.839 608.385L466.999 581.166C369.433 559.298 294.126 508.232 294.126 398.307C293.612 355.858 307.483 314.446 333.555 280.589Z" fill="black"/>
<path d="M693.984 650.028C746.911 683.297 770.119 729.826 770.119 796.595C726.309 851.729 649.345 882.67 558.883 882.67C406.613 882.67 300.047 809.041 276.366 681.087H422.597C441.424 739.829 491.273 767.049 557.817 767.049C639.044 767.049 693.037 724.475 694.103 649.796" fill="#505050"/>
<path d="M409.572 418.547C385.404 404.436 365.574 384.16 352.191 359.871C338.807 335.581 332.367 308.185 333.556 280.589C375.827 225.918 449.356 192.534 538.99 192.534C694.103 192.534 783.854 273.029 805.996 386.326H665.329C649.818 341.659 610.981 306.878 540.174 306.878C464.512 306.878 412.887 350.15 409.928 418.547" fill="#505050"/>
</svg>
