<svg width="800" height="800" viewBox="0 0 800 800" fill="none" xmlns="http://www.w3.org/2000/svg">
<path d="M780.838 6.25H255.041V269.881H513.758C522.975 269.881 530.452 277.359 530.452 286.576V541.722H797.532V22.9749C797.541 18.542 795.785 14.2879 792.654 11.1505C789.522 8.01305 785.271 6.25 780.838 6.25Z" fill="black"/>
<path opacity="0.405" d="M255.01 6.25V269.881H8.34789C4.95841 269.875 1.90781 267.824 0.623656 264.687C-0.660493 261.55 0.075835 257.948 2.48806 255.567L255.01 6.25ZM544.675 791.314C542.273 793.673 538.692 794.362 535.587 793.063C532.482 791.763 530.458 788.729 530.452 785.363V541.722H797.532L544.675 791.284V791.314Z" fill="#2B2B2B"/>
<path opacity="0.405" d="M255.01 269.881H522.12C526.698 269.881 530.452 273.605 530.452 278.213V541.722H271.735C262.515 541.722 255.04 534.248 255.04 525.028V269.881H255.01Z" fill="#232323"/>
</svg>
